<svg xmlns="http://www.w3.org/2000/svg" viewBox="0 0 64 64">
  <path fill="var(--nr-icon-brand, #2f99a4)" d="M12 8a6 6 0 0 0-6 6v36a6 6 0 0 0 6 6h9v-8h-7V16h7V8h-9Zm31 0v8h7v32h-7v8h9a6 6 0 0 0 6-6V14a6 6 0 0 0-6-6h-9Z"/>
  <path fill="currentColor" d="M21 29h22a5 5 0 0 1 5 5v14a5 5 0 0 1-5 5H21a5 5 0 0 1-5-5V34a5 5 0 0 1 5-5Zm5-2v2h-6v-2c0-7 5.2-12 12-12s12 5 12 12v2h-6v-2c0-3.8-2.4-6.4-6-6.4S26 23.2 26 27Z"/>
  <path fill="var(--icon-color-accent, #ff8700)" d="M32 36a4 4 0 0 1 2 7.5V48h-4v-4.5A4 4 0 0 1 32 36Z"/>
</svg>
