<svg xmlns="http://www.w3.org/2000/svg" viewBox="0 0 64 64">
  <path fill="none" stroke="currentColor" stroke-linecap="round" stroke-linejoin="round" stroke-width="6" d="M17 29h30a6 6 0 0 1 6 6v14a6 6 0 0 1-6 6H17a6 6 0 0 1-6-6V35a6 6 0 0 1 6-6Z"/>
  <path fill="none" stroke="currentColor" stroke-linecap="round" stroke-width="6" d="M22 29v-5c0-7 4.5-13 10-13s10 6 10 13v5"/>
  <path fill="var(--icon-color-accent, #ff8700)" d="M32 37a5 5 0 0 1 2.5 9.3V50h-5v-3.7A5 5 0 0 1 32 37Z"/>
  <path fill="currentColor" d="M20 39h5v5h-5zm19 0h5v5h-5z" opacity=".72"/>
</svg>
