<svg xmlns="http://www.w3.org/2000/svg" viewBox="0 0 64 64">
  <path fill="none" stroke="currentColor" stroke-linecap="round" stroke-linejoin="round" stroke-width="4" d="M17 30h30a5 5 0 0 1 5 5v13a5 5 0 0 1-5 5H17a5 5 0 0 1-5-5V35a5 5 0 0 1 5-5Z"/>
  <path fill="none" stroke="currentColor" stroke-linecap="round" stroke-width="4" d="M23 30v-5c0-6.6 4-12 9-12s9 5.4 9 12v5"/>
  <path fill="var(--icon-color-accent, #ff8700)" d="M32 38a4.5 4.5 0 0 1 2.2 8.4V50h-4.4v-3.6A4.5 4.5 0 0 1 32 38Z"/>
  <path fill="currentColor" d="M21 40h4v4h-4zm18 0h4v4h-4z" opacity=".72"/>
</svg>
